<?xml version="1.0" encoding="UTF-8"?>
<svg width="51px" height="48px" viewBox="0 0 51 48" version="1.1" xmlns="http://www.w3.org/2000/svg" xmlns:xlink="http://www.w3.org/1999/xlink">
    <!-- Generator: Sketch 51.2 (57519) - http://www.bohemiancoding.com/sketch -->
    <title>avatar</title>
    <desc>Created with Sketch.</desc>
    <defs></defs>
    <g id="Page-1" stroke="none" stroke-width="1" fill="none" fill-rule="evenodd">
        <g id="Artboard" transform="translate(-5859.000000, -157.000000)" fill-rule="nonzero">
            <g id="avatar" transform="translate(5859.000000, 157.000000)">
                <circle id="Oval-5" fill="#AAAAAA" cx="24" cy="24" r="24"></circle>
                <path d="M13.4719751,39.1445455 L34.9273322,39.1445525 C36.5841903,39.1445525 37.9273393,37.8014036 37.9273393,36.1445455 C37.9273393,35.6875315 37.822926,35.2365583 37.6220693,34.8260485 C35.0692857,29.6086828 30.5951478,27 24.1996557,27 C17.8041658,27 13.3300288,29.608681 10.7772447,34.8260429 L10.7772378,34.8260395 C10.0490513,36.3143018 10.6652146,38.1110885 12.1534769,38.839275 C12.563987,39.040132 13.0149607,39.1445455 13.4719751,39.1445455 Z" id="Path-2" fill="#ECECEC"></path>
                <path d="M24.5,24.4909096 C28.6421356,24.4909096 32,22.5361194 32,16.6559557 C32,10.775792 28.6421356,7 24.5,7 C20.3578644,7 17,10.775792 17,16.6559557 C17,22.5361194 20.3578644,24.4909096 24.5,24.4909096 Z" id="Oval-3" fill="#ECECEC"></path>
                <circle id="Oval" fill="#71C386" cx="44.5" cy="13.5" r="6.5"></circle>
                <path d="M47.75,12.9583333 L45.0416667,12.9583333 L45.0416667,10.25 C45.0416667,9.951 44.799,9.70833333 44.5,9.70833333 C44.201,9.70833333 43.9583333,9.951 43.9583333,10.25 L43.9583333,12.9583333 L41.25,12.9583333 C40.951,12.9583333 40.7083333,13.201 40.7083333,13.5 C40.7083333,13.799 40.951,14.0416667 41.25,14.0416667 L43.9583333,14.0416667 L43.9583333,16.75 C43.9583333,17.049 44.201,17.2916667 44.5,17.2916667 C44.799,17.2916667 45.0416667,17.049 45.0416667,16.75 L45.0416667,14.0416667 L47.75,14.0416667 C48.049,14.0416667 48.2916667,13.799 48.2916667,13.5 C48.2916667,13.201 48.049,12.9583333 47.75,12.9583333 Z" id="Shape" fill="#FFFFFF"></path>
            </g>
        </g>
    </g>
</svg>