<?xml version="1.0" encoding="UTF-8"?>
<svg width="90px" height="78px" viewBox="0 0 90 78" version="1.1" xmlns="http://www.w3.org/2000/svg" xmlns:xlink="http://www.w3.org/1999/xlink">
    <!-- Generator: Sketch 51.2 (57519) - http://www.bohemiancoding.com/sketch -->
    <title>Combined-Shape</title>
    <desc>Created with Sketch.</desc>
    <defs></defs>
    <g id="Page-1" stroke="none" stroke-width="1" fill="none" fill-rule="evenodd">
        <g id="Artboard" transform="translate(-6039.000000, -3032.000000)" fill="#333333" fill-rule="nonzero">
            <g id="camera-logo" transform="translate(6006.000000, 2996.000000)">
                <path d="M78,36 L86.3401342,36 C88.6425237,36 90.8661158,36.8367509 92.5952763,38.3538745 L99.1263395,44.0840145 C101.287808,45.9803836 104.067292,47.02634 106.945279,47.02634 L112.739976,47.02634 C118.406424,47.02634 123,51.6106364 123,57.2656364 L123,99.8181818 C123,107.650587 116.637734,114 108.789474,114 L78,114 L47.2105263,114 C39.3622658,114 33,107.650587 33,99.8181818 L33,57.2656364 C33,51.6106364 37.5935763,47.02634 43.2600237,47.02634 L49.0547211,47.02634 C51.9327079,47.02634 54.7121921,45.9803836 56.8736605,44.0840145 L63.4047237,38.3538745 C65.1338842,36.8367509 67.3574763,36 69.6598658,36 L78,36 Z M78,102.181818 C91.0804342,102.181818 101.684211,91.5994636 101.684211,78.5454545 C101.684211,65.4914455 91.0804342,54.9090909 78,54.9090909 C64.9195658,54.9090909 54.3157895,65.4914455 54.3157895,78.5454545 C54.3157895,91.5994636 64.9195658,102.181818 78,102.181818 Z M78,95.0909091 C68.8437079,95.0909091 61.4210526,87.6832491 61.4210526,78.5454545 C61.4210526,69.40766 68.8437079,62 78,62 C87.1562921,62 94.5789474,69.40766 94.5789474,78.5454545 C94.5789474,87.6832491 87.1562921,95.0909091 78,95.0909091 Z" id="Combined-Shape"></path>
            </g>
        </g>
    </g>
</svg>