<?xml version="1.0" encoding="UTF-8"?>
<svg width="71px" height="71px" viewBox="0 0 71 71" version="1.1" xmlns="http://www.w3.org/2000/svg" xmlns:xlink="http://www.w3.org/1999/xlink">
    <!-- Generator: Sketch 51.2 (57519) - http://www.bohemiancoding.com/sketch -->
    <title>286085</title>
    <desc>Created with Sketch.</desc>
    <defs></defs>
    <g id="Page-1" stroke="none" stroke-width="1" fill="none" fill-rule="evenodd">
        <g id="Artboard" transform="translate(-4632.000000, -2217.000000)" fill="#000000" fill-rule="nonzero">
            <g id="286085" transform="translate(4632.000000, 2217.000000)">
                <path d="M18.121772,13.8779702 C17.5619387,13.3199416 16.7897993,13 16,13 C15.2100718,13 14.4378035,13.3199416 13.8779702,13.8779702 C13.3199416,14.4379324 13,15.2099429 13,16 C13,16.7900571 13.3199416,17.5619387 13.8779702,18.1220298 C14.4359988,18.6800584 15.2099429,19 16,19 C16.7897993,19 17.5619387,18.6800584 18.121772,18.1220298 C18.6798006,17.5620676 19,16.7900571 19,16 C19,15.2099429 18.6798006,14.4379324 18.121772,13.8779702 Z" id="Shape"></path>
                <path d="M27.8999734,0 L3.10002664,0 C1.38797223,0 0,1.38797223 0,3.10002664 L0,27.8999734 C0,29.6120278 1.38797223,31 3.10002664,31 L27.8999734,31 C29.6120278,31 31,29.6120278 31,27.8999734 L31,3.10002664 C30.9998668,1.38797223 29.6118946,0 27.8999734,0 Z M24.7999467,24.7999467 L6.19992008,24.7999467 L6.19992008,6.19992008 L24.7999467,6.19992008 L24.7999467,24.7999467 Z" id="Shape"></path>
                <path d="M57.1199673,13.8779702 C56.5619387,13.3199416 55.7899282,13 55,13 C54.2100718,13 53.4359988,13.3199416 52.8779702,13.8779702 C52.3199416,14.4379324 52,15.2099429 52,16 C52,16.7900571 52.3199416,17.5619387 52.8779702,18.1220298 C53.4359988,18.6800584 54.2099429,19 55,19 C55.7897993,19 56.5618098,18.6800584 57.1199673,18.1220298 C57.6799295,17.5620676 58,16.7900571 58,16 C58,15.2099429 57.6798006,14.4379324 57.1199673,13.8779702 Z" id="Shape"></path>
                <path d="M67.8999734,0 L43.1000266,0 C41.3879722,0 40,1.38797223 40,3.10002664 L40,27.8999734 C40,29.6120278 41.3879722,31 43.1000266,31 L67.8999734,31 C69.6120278,31 71,29.6120278 71,27.8999734 L71,3.10002664 C71,1.38797223 69.6120278,0 67.8999734,0 Z M64.8000799,24.7999467 L46.2000533,24.7999467 L46.2000533,6.19992008 L64.8000799,6.19992008 L64.8000799,24.7999467 Z" id="Shape"></path>
                <path d="M18.121772,52.8779702 C17.5618098,52.3199416 16.7897993,52 16,52 C15.2100718,52 14.4378035,52.3199416 13.8779702,52.8779702 C13.3199416,53.4379324 13,54.2099429 13,55 C13,55.7900571 13.3199416,56.5619387 13.8779702,57.1220298 C14.4359988,57.6800584 15.2099429,58 16,58 C16.7897993,58 17.5619387,57.6800584 18.121772,57.1220298 C18.6798006,56.5620676 19,55.7900571 19,55 C19,54.2099429 18.6798006,53.4379324 18.121772,52.8779702 Z" id="Shape"></path>
                <path d="M27.8999734,40 L3.10002664,40 C1.38797223,40 0,41.3879782 0,43.0999068 L0,67.89996 C0,69.6120218 1.38797223,71 3.10002664,71 L27.8999734,71 C29.6120278,71 31,69.6120218 31,67.89996 L31,43.0999068 C30.9998668,41.3879782 29.6118946,40 27.8999734,40 Z M24.7999467,64.8000533 L6.19992008,64.8000533 L6.19992008,46.1999467 L24.7999467,46.1999467 L24.7999467,64.8000533 Z" id="Shape"></path>
                <path d="M56.9999839,52 L55.0000161,52 C53.3431946,52 52,53.3431874 52,55 C52,56.6568126 53.3431946,58 55.0000161,58 L56.9999839,58 C58.6568054,58 60,56.6568126 60,55 C60,53.3431874 58.6568054,52 56.9999839,52 Z" id="Shape"></path>
                <path d="M67.8124829,58 C66.05211,58 64.6249658,59.4551197 64.6249658,61.25 L64.6249658,64.5 L57.1875171,64.5 C55.4271443,64.5 54,65.9551197 54,67.75 C54,69.5448803 55.4271443,71 57.1875171,71 L67.8124829,71 C69.5728557,70.9998604 71,69.5447407 71,67.7498604 L71,61.25 C71,59.4551197 69.5728557,58 67.8124829,58 Z" id="Shape"></path>
                <path d="M43,52 C41.3431874,52 40,53.3431989 40,55.0000258 L40,58.9999742 C40,60.6568011 41.3431874,62 43,62 C44.6568126,62 46,60.6568011 46,58.9999742 L46,55.0000258 C46,53.3431989 44.6568126,52 43,52 Z" id="Shape"></path>
                <path d="M57.7499651,40 L51.2500349,40 C49.4551353,40 48,41.3431874 48,43 C48,44.6568126 49.4551353,46 51.2500349,46 L57.7499651,46 C59.5448647,46 61,44.6568126 61,43 C61,41.3431874 59.5448647,40 57.7499651,40 Z" id="Shape"></path>
            </g>
        </g>
    </g>
</svg>