<?xml version="1.0" encoding="UTF-8"?>
<svg width="158px" height="158px" viewBox="0 0 158 158" version="1.1" xmlns="http://www.w3.org/2000/svg" xmlns:xlink="http://www.w3.org/1999/xlink">
    <!-- Generator: Sketch 51.2 (57519) - http://www.bohemiancoding.com/sketch -->
    <title>social add</title>
    <desc>Created with Sketch.</desc>
    <defs>
        <circle id="path-1" cx="53" cy="53" r="53"></circle>
        <filter x="-39.2%" y="-37.3%" width="178.3%" height="178.3%" filterUnits="objectBoundingBox" id="filter-2">
            <feOffset dx="0" dy="2" in="SourceAlpha" result="shadowOffsetOuter1"></feOffset>
            <feGaussianBlur stdDeviation="13.5" in="shadowOffsetOuter1" result="shadowBlurOuter1"></feGaussianBlur>
            <feColorMatrix values="0 0 0 0 0   0 0 0 0 0   0 0 0 0 0  0 0 0 0.5 0" type="matrix" in="shadowBlurOuter1"></feColorMatrix>
        </filter>
    </defs>
    <g id="Page-1" stroke="none" stroke-width="1" fill="none" fill-rule="evenodd">
        <g id="Artboard" transform="translate(-5110.000000, -2795.000000)" fill-rule="nonzero">
            <g id="social-add" transform="translate(5136.000000, 2819.000000)">
                <g id="Oval-7">
                    <use fill="black" fill-opacity="1" filter="url(#filter-2)" xlink:href="#path-1"></use>
                    <use fill="#FFFFFF" xlink:href="#path-1"></use>
                </g>
                <path d="M60,46.5 L81,46.5 C84.5898509,46.5 87.5,49.4101491 87.5,53 C87.5,56.5898509 84.5898509,59.5 81,59.5 L60,59.5 L60,80.5 C60,84.0898509 57.0898509,87 53.5,87 C49.9101491,87 47,84.0898509 47,80.5 L47,59.5 L26,59.5 C22.4101491,59.5 19.5,56.5898509 19.5,53 C19.5,49.4101491 22.4101491,46.5 26,46.5 L47,46.5 L47,25.5 C47,21.9101491 49.9101491,19 53.5,19 C57.0898509,19 60,21.9101491 60,25.5 L60,46.5 Z" id="Combined-Shape" fill="#333333"></path>
            </g>
        </g>
    </g>
</svg>